<?xml version="1.0" standalone="no"?>
<!DOCTYPE svg PUBLIC "-//W3C//DTD SVG 20010904//EN"
 "http://www.w3.org/TR/2001/REC-SVG-20010904/DTD/svg10.dtd">
<svg version="1.0" xmlns="http://www.w3.org/2000/svg"
 width="512.000000pt" height="512.000000pt" viewBox="0 0 512.000000 512.000000"
 preserveAspectRatio="xMidYMid meet">

<g transform="translate(0.000000,512.000000) scale(0.100000,-0.100000)"
fill="#555" stroke="none">
<path d="M3330 5110 c-258 -45 -467 -227 -556 -485 -25 -72 -28 -94 -28 -210
1 -128 4 -145 50 -286 4 -12 -127 -121 -512 -425 -285 -225 -526 -415 -536
-422 -15 -11 -26 -6 -80 34 -256 188 -597 236 -888 123 -420 -162 -671 -597
-595 -1032 20 -115 62 -230 121 -329 68 -116 210 -256 329 -326 318 -187 722
-170 1021 44 36 25 69 44 74 42 4 -2 241 -187 526 -413 285 -225 524 -414 531
-420 11 -8 10 -20 -6 -65 -32 -90 -44 -185 -37 -282 25 -352 307 -631 661
-655 221 -14 447 85 592 258 51 63 125 210 144 289 22 91 17 262 -10 350 -75
244 -246 415 -491 491 -61 19 -96 24 -190 23 -63 -1 -135 -7 -160 -13 -76 -21
-173 -63 -218 -93 -24 -17 -48 -27 -55 -25 -11 5 -1039 816 -1061 837 -5 5 7
47 27 97 20 48 39 105 42 126 l7 37 763 0 762 0 13 -42 c54 -183 206 -348 395
-430 102 -45 143 -52 280 -52 112 1 141 4 208 26 346 115 553 464 481 816 -8
44 -34 116 -59 167 -76 156 -175 255 -330 330 -118 56 -177 70 -310 70 -94 0
-123 -4 -197 -29 -225 -73 -408 -250 -468 -453 l-13 -43 -762 0 -763 0 -16 65
c-9 36 -27 90 -41 121 -14 32 -24 58 -23 59 2 1 239 187 527 414 288 227 531
417 540 423 14 8 27 5 59 -16 216 -136 508 -140 732 -9 86 51 197 162 249 250
123 208 132 450 26 668 -76 155 -174 253 -330 330 -135 66 -284 89 -425 65z
m274 -389 c75 -37 126 -90 165 -171 21 -46 26 -69 26 -140 0 -104 -29 -174
-100 -245 -70 -71 -141 -99 -245 -100 -71 0 -94 4 -141 26 -123 58 -201 172
-207 304 -6 110 46 224 132 290 109 83 247 97 370 36z m-2372 -1592 c29 -6 90
-28 135 -50 197 -94 323 -297 323 -519 0 -222 -126 -425 -323 -519 -103 -50
-182 -65 -295 -58 -294 18 -519 246 -539 543 -19 276 163 524 437 598 66 18
189 20 262 5z m3155 -254 c72 -32 137 -95 173 -170 21 -42 25 -64 25 -145 0
-81 -4 -103 -25 -145 -96 -197 -339 -264 -515 -142 -99 67 -165 210 -151 320
33 246 271 382 493 282z m-783 -1854 c75 -37 128 -91 165 -170 22 -47 26 -70
26 -141 0 -76 -4 -93 -33 -152 -38 -77 -92 -130 -171 -167 -81 -37 -201 -37
-282 0 -79 37 -133 90 -171 167 -29 59 -33 76 -33 152 0 71 4 94 27 142 85
182 294 257 472 169z"/>
</g>
</svg>
