<svg preserveAspectRatio="xMidYMid meet" id="comp-kqr2cxeosvgcontent" data-bbox="27.067 49.383 146.033 101.117" viewBox="27.067 49.383 146.033 101.117" height="200" width="200" xmlns="http://www.w3.org/2000/svg" data-type="tint" role="img">
    <g>
        <path d="M32.8 148.2v-1.3c11.8-2.3 22.6-8.3 30.8-17.1 7.6-8.6 12-19.5 12.6-30.8-6.9 8.1-14.6 12.2-23.2 12.2-5 .1-9.9-1.2-14.1-3.9-3.9-2.4-7-5.9-8.9-10-2-4.5-3-9.4-2.9-14.3-.4-9 2.9-17.8 9.2-24.3 6-6 14.2-9.4 22.8-9.2 8.5-.3 16.7 3.4 22.2 9.8 5.7 6.6 8.5 16 8.5 28.4 0 5.3-.5 10.5-1.5 15.7-1.2 5.4-3.2 10.6-5.9 15.4-3 5.4-6.8 10.4-11.4 14.7-4.7 4.5-10.1 8.3-16 11.3-5.5 2.9-11.4 4.8-17.6 5.7l-4.6-2.3z" fill="#EDECEC"></path>
        <path d="M116.1 148.2v-1.3c11.8-2.3 22.6-8.3 30.8-17.1 7.6-8.6 12-19.5 12.6-30.8-6.9 8.1-14.6 12.2-23.2 12.2-5 .1-9.9-1.2-14.1-3.9-3.9-2.4-7-5.9-8.9-10-2-4.5-3-9.4-2.9-14.4-.4-9 2.9-17.8 9.2-24.3 6-6 14.2-9.4 22.8-9.2 8.5-.3 16.7 3.4 22.2 9.8 5.7 6.6 8.5 16 8.5 28.4 0 5.3-.5 10.5-1.5 15.7-1.2 5.4-3.2 10.6-5.9 15.4-3 5.4-6.8 10.4-11.4 14.7-4.7 4.5-10.1 8.3-16 11.3-5.5 2.9-11.4 4.8-17.6 5.7l-4.6-2.2z" fill="#EDECEC"></path>
    </g>
</svg>