<?xml version="1.0" standalone="no"?>
<!DOCTYPE svg PUBLIC "-//W3C//DTD SVG 20010904//EN"
 "http://www.w3.org/TR/2001/REC-SVG-20010904/DTD/svg10.dtd">
<svg version="1.0" xmlns="http://www.w3.org/2000/svg"
 width="752.000000pt" height="195.000000pt" viewBox="0 0 752.000000 195.000000"
 preserveAspectRatio="xMidYMid meet">
<metadata>
Created by potrace 1.16, written by Peter Selinger 2001-2019
</metadata>
<g transform="translate(0.000000,195.000000) scale(0.100000,-0.100000)"
fill="#000000" stroke="none">
<path d="M2930 1085 l0 -865 205 0 205 0 0 355 0 355 385 0 385 0 0 -355 0
-355 205 0 205 0 0 865 0 865 -205 0 -205 0 0 -340 0 -340 -385 0 -385 0 0
340 0 340 -205 0 -205 0 0 -865z"/>
<path d="M380 1212 l0 -717 -161 -205 c-89 -112 -157 -206 -152 -207 4 -2 89
24 188 57 l179 60 466 0 c465 0 580 6 695 37 209 55 338 185 366 367 14 86 -1
198 -36 273 -34 74 -112 153 -191 194 -66 33 -66 33 -43 49 118 77 189 213
189 360 0 222 -148 376 -413 431 -83 17 -140 19 -589 19 l-498 0 0 -718z m982
375 c149 -73 142 -260 -12 -331 -41 -19 -67 -21 -307 -24 l-263 -3 0 196 0
196 263 -3 262 -3 57 -28z m41 -680 c102 -33 148 -94 148 -193 0 -106 -63
-169 -196 -193 -33 -6 -173 -11 -317 -11 l-258 0 0 211 0 211 288 -4 c224 -4
297 -8 335 -21z"/>
<path d="M5195 1550 c-49 -11 -117 -29 -150 -41 -74 -26 -185 -86 -185 -100 0
-6 30 -69 66 -140 61 -120 83 -146 100 -118 13 22 151 78 234 95 203 41 369
-22 408 -155 26 -84 42 -78 -225 -84 -196 -4 -252 -9 -315 -25 -147 -39 -237
-106 -287 -212 -23 -49 -26 -67 -26 -165 1 -130 17 -176 92 -256 89 -95 193
-137 363 -146 178 -9 318 34 400 124 l40 43 0 -75 0 -75 186 0 186 0 -4 442
c-5 413 -6 448 -26 522 -12 43 -35 102 -52 130 -67 118 -204 209 -362 240
-109 22 -327 20 -443 -4z m485 -845 c0 -79 -14 -109 -76 -164 -84 -74 -232
-93 -330 -43 -93 47 -110 158 -36 225 42 38 90 46 270 47 l172 0 0 -65z"/>
<path d="M6340 1400 l0 -150 320 0 c176 0 320 -2 320 -5 0 -3 -148 -181 -330
-396 l-330 -390 0 -119 0 -120 595 0 595 0 0 155 0 155 -339 2 -339 3 329 389
329 388 0 119 0 119 -575 0 -575 0 0 -150z"/>
</g>
</svg>
